<svg width="223" height="159" fill="none" xmlns="http://www.w3.org/2000/svg"><ellipse rx="1.341" ry="1.5" transform="matrix(-1 0 0 1 221.098 1.5)" fill="#00D664"/><ellipse rx="1.341" ry="1.5" transform="matrix(-1 0 0 1 205.006 1.5)" fill="#00D664"/><ellipse rx="1.341" ry="1.5" transform="matrix(-1 0 0 1 188.914 1.5)" fill="#00D664"/><ellipse rx="1.341" ry="1.5" transform="matrix(-1 0 0 1 172.822 1.5)" fill="#00D664"/><ellipse rx="1.341" ry="1.5" transform="matrix(-1 0 0 1 156.73 1.5)" fill="#00D664"/><ellipse rx="1.341" ry="1.5" transform="matrix(-1 0 0 1 140.638 1.5)" fill="#00D664"/><ellipse rx="1.341" ry="1.5" transform="matrix(-1 0 0 1 124.546 1.5)" fill="#00D664"/><ellipse rx="1.341" ry="1.5" transform="matrix(-1 0 0 1 108.455 1.5)" fill="#00D664"/><ellipse rx="1.341" ry="1.5" transform="matrix(-1 0 0 1 92.363 1.5)" fill="#00D664"/><ellipse rx="1.341" ry="1.5" transform="matrix(-1 0 0 1 76.27 1.5)" fill="#00D664"/><ellipse rx="1.341" ry="1.5" transform="matrix(-1 0 0 1 221.098 19.5)" fill="#00D664"/><ellipse rx="1.341" ry="1.5" transform="matrix(-1 0 0 1 205.006 19.5)" fill="#00D664"/><ellipse rx="1.341" ry="1.5" transform="matrix(-1 0 0 1 188.914 19.5)" fill="#00D664"/><ellipse rx="1.341" ry="1.5" transform="matrix(-1 0 0 1 172.822 19.5)" fill="#00D664"/><ellipse rx="1.341" ry="1.5" transform="matrix(-1 0 0 1 156.73 19.5)" fill="#00D664"/><ellipse rx="1.341" ry="1.5" transform="matrix(-1 0 0 1 140.638 19.5)" fill="#00D664"/><ellipse rx="1.341" ry="1.5" transform="matrix(-1 0 0 1 124.546 19.5)" fill="#00D664"/><ellipse rx="1.341" ry="1.5" transform="matrix(-1 0 0 1 108.455 19.5)" fill="#00D664"/><ellipse rx="1.341" ry="1.5" transform="matrix(-1 0 0 1 92.363 19.5)" fill="#00D664"/><ellipse rx="1.341" ry="1.5" transform="matrix(-1 0 0 1 76.27 19.5)" fill="#00D664"/><ellipse rx="1.341" ry="1.5" transform="matrix(-1 0 0 1 221.098 37.5)" fill="#00D664"/><ellipse rx="1.341" ry="1.5" transform="matrix(-1 0 0 1 205.006 37.5)" fill="#00D664"/><ellipse rx="1.341" ry="1.5" transform="matrix(-1 0 0 1 188.914 37.5)" fill="#00D664"/><ellipse rx="1.341" ry="1.5" transform="matrix(-1 0 0 1 172.822 37.5)" fill="#00D664"/><ellipse rx="1.341" ry="1.5" transform="matrix(-1 0 0 1 156.73 37.5)" fill="#00D664"/><ellipse rx="1.341" ry="1.5" transform="matrix(-1 0 0 1 140.638 37.5)" fill="#00D664"/><ellipse rx="1.341" ry="1.5" transform="matrix(-1 0 0 1 124.546 37.5)" fill="#00D664"/><ellipse rx="1.341" ry="1.5" transform="matrix(-1 0 0 1 108.455 37.5)" fill="#00D664"/><ellipse rx="1.341" ry="1.5" transform="matrix(-1 0 0 1 92.363 37.5)" fill="#00D664"/><ellipse rx="1.341" ry="1.5" transform="matrix(-1 0 0 1 76.27 37.5)" fill="#00D664"/><ellipse rx="1.341" ry="1.5" transform="matrix(-1 0 0 1 221.098 55.5)" fill="#00D664"/><ellipse rx="1.341" ry="1.5" transform="matrix(-1 0 0 1 205.006 55.5)" fill="#00D664"/><ellipse rx="1.341" ry="1.5" transform="matrix(-1 0 0 1 188.914 55.5)" fill="#00D664"/><ellipse rx="1.341" ry="1.5" transform="matrix(-1 0 0 1 172.822 55.5)" fill="#00D664"/><ellipse rx="1.341" ry="1.5" transform="matrix(-1 0 0 1 156.73 55.5)" fill="#00D664"/><ellipse rx="1.341" ry="1.5" transform="matrix(-1 0 0 1 140.638 55.5)" fill="#00D664"/><ellipse rx="1.341" ry="1.5" transform="matrix(-1 0 0 1 124.546 55.5)" fill="#00D664"/><ellipse rx="1.341" ry="1.5" transform="matrix(-1 0 0 1 108.455 55.5)" fill="#00D664"/><ellipse rx="1.341" ry="1.5" transform="matrix(-1 0 0 1 92.363 55.5)" fill="#00D664"/><ellipse rx="1.341" ry="1.5" transform="matrix(-1 0 0 1 76.27 55.5)" fill="#00D664"/><ellipse rx="1.341" ry="1.5" transform="matrix(-1 0 0 1 221.098 73.5)" fill="#00D664"/><ellipse rx="1.341" ry="1.5" transform="matrix(-1 0 0 1 205.006 73.5)" fill="#00D664"/><ellipse rx="1.341" ry="1.5" transform="matrix(-1 0 0 1 188.914 73.5)" fill="#00D664"/><ellipse rx="1.341" ry="1.5" transform="matrix(-1 0 0 1 172.822 73.5)" fill="#00D664"/><ellipse rx="1.341" ry="1.5" transform="matrix(-1 0 0 1 156.73 73.5)" fill="#00D664"/><ellipse rx="1.341" ry="1.5" transform="matrix(-1 0 0 1 140.638 73.5)" fill="#00D664"/><ellipse rx="1.341" ry="1.5" transform="matrix(-1 0 0 1 124.546 73.5)" fill="#00D664"/><ellipse rx="1.341" ry="1.5" transform="matrix(-1 0 0 1 108.455 73.5)" fill="#00D664"/><ellipse rx="1.341" ry="1.5" transform="matrix(-1 0 0 1 92.363 73.5)" fill="#00D664"/><ellipse rx="1.341" ry="1.5" transform="matrix(-1 0 0 1 76.27 73.5)" fill="#00D664"/><ellipse rx="1.341" ry="1.5" transform="matrix(-1 0 0 1 221.098 91.5)" fill="#00D664"/><ellipse rx="1.341" ry="1.5" transform="matrix(-1 0 0 1 205.006 91.5)" fill="#00D664"/><ellipse rx="1.341" ry="1.5" transform="matrix(-1 0 0 1 188.914 91.5)" fill="#00D664"/><ellipse rx="1.341" ry="1.5" transform="matrix(-1 0 0 1 172.822 91.5)" fill="#00D664"/><ellipse rx="1.341" ry="1.5" transform="matrix(-1 0 0 1 156.73 91.5)" fill="#00D664"/><ellipse rx="1.341" ry="1.5" transform="matrix(-1 0 0 1 140.638 91.5)" fill="#00D664"/><ellipse rx="1.341" ry="1.5" transform="matrix(-1 0 0 1 124.546 91.5)" fill="#00D664"/><ellipse rx="1.341" ry="1.5" transform="matrix(-1 0 0 1 108.455 91.5)" fill="#00D664"/><ellipse rx="1.341" ry="1.5" transform="matrix(-1 0 0 1 92.363 91.5)" fill="#00D664"/><ellipse rx="1.341" ry="1.5" transform="matrix(-1 0 0 1 76.27 91.5)" fill="#00D664"/><ellipse rx="1.341" ry="1.5" transform="matrix(-1 0 0 1 221.098 109.5)" fill="#00D664"/><ellipse rx="1.341" ry="1.5" transform="matrix(-1 0 0 1 205.006 109.5)" fill="#00D664"/><ellipse rx="1.341" ry="1.5" transform="matrix(-1 0 0 1 188.914 109.5)" fill="#00D664"/><ellipse rx="1.341" ry="1.5" transform="matrix(-1 0 0 1 172.822 109.5)" fill="#00D664"/><ellipse rx="1.341" ry="1.5" transform="matrix(-1 0 0 1 156.73 109.5)" fill="#00D664"/><ellipse rx="1.341" ry="1.5" transform="matrix(-1 0 0 1 140.638 109.5)" fill="#00D664"/><ellipse rx="1.341" ry="1.5" transform="matrix(-1 0 0 1 124.546 109.5)" fill="#00D664"/><ellipse rx="1.341" ry="1.5" transform="matrix(-1 0 0 1 108.455 109.5)" fill="#00D664"/><ellipse rx="1.341" ry="1.5" transform="matrix(-1 0 0 1 92.363 109.5)" fill="#00D664"/><ellipse rx="1.341" ry="1.5" transform="matrix(-1 0 0 1 76.27 109.5)" fill="#00D664"/><ellipse rx="1.341" ry="1.5" transform="matrix(-1 0 0 1 221.098 120.5)" fill="#00D664"/><ellipse rx="1.341" ry="1.5" transform="matrix(-1 0 0 1 205.006 120.5)" fill="#00D664"/><ellipse rx="1.341" ry="1.5" transform="matrix(-1 0 0 1 188.914 120.5)" fill="#00D664"/><ellipse rx="1.341" ry="1.5" transform="matrix(-1 0 0 1 172.822 120.5)" fill="#00D664"/><ellipse rx="1.341" ry="1.5" transform="matrix(-1 0 0 1 156.73 120.5)" fill="#00D664"/><ellipse rx="1.341" ry="1.5" transform="matrix(-1 0 0 1 140.638 120.5)" fill="#00D664"/><ellipse rx="1.341" ry="1.5" transform="matrix(-1 0 0 1 124.546 120.5)" fill="#00D664"/><ellipse rx="1.341" ry="1.5" transform="matrix(-1 0 0 1 108.455 120.5)" fill="#00D664"/><ellipse rx="1.341" ry="1.5" transform="matrix(-1 0 0 1 92.363 120.5)" fill="#00D664"/><ellipse rx="1.341" ry="1.5" transform="matrix(-1 0 0 1 76.27 120.5)" fill="#00D664"/><ellipse rx="1.341" ry="1.5" transform="matrix(-1 0 0 1 221.098 138.5)" fill="#00D664"/><ellipse rx="1.341" ry="1.5" transform="matrix(-1 0 0 1 205.006 138.5)" fill="#00D664"/><ellipse rx="1.341" ry="1.5" transform="matrix(-1 0 0 1 188.914 138.5)" fill="#00D664"/><ellipse rx="1.341" ry="1.5" transform="matrix(-1 0 0 1 172.822 138.5)" fill="#00D664"/><ellipse rx="1.341" ry="1.5" transform="matrix(-1 0 0 1 156.73 138.5)" fill="#00D664"/><ellipse rx="1.341" ry="1.5" transform="matrix(-1 0 0 1 140.638 138.5)" fill="#00D664"/><ellipse rx="1.341" ry="1.5" transform="matrix(-1 0 0 1 124.546 138.5)" fill="#00D664"/><ellipse rx="1.341" ry="1.5" transform="matrix(-1 0 0 1 108.455 138.5)" fill="#00D664"/><ellipse rx="1.341" ry="1.5" transform="matrix(-1 0 0 1 92.363 138.5)" fill="#00D664"/><ellipse rx="1.341" ry="1.5" transform="matrix(-1 0 0 1 76.27 138.5)" fill="#00D664"/><ellipse rx="1.294" ry="1.555" transform="matrix(-.01006 .99995 .99996 .00937 65.796 17.308)" fill="#00D664"/><ellipse rx="1.294" ry="1.555" transform="matrix(-.01006 .99995 .99996 .00937 65.64 32.833)" fill="#00D664"/><ellipse rx="1.294" ry="1.555" transform="matrix(-.01006 .99995 .99996 .00937 65.484 48.358)" fill="#00D664"/><ellipse rx="1.294" ry="1.555" transform="matrix(-.01006 .99995 .99996 .00937 65.328 63.883)" fill="#00D664"/><ellipse rx="1.294" ry="1.555" transform="matrix(-.01006 .99995 .99996 .00937 65.172 79.409)" fill="#00D664"/><ellipse rx="1.294" ry="1.555" transform="matrix(-.01006 .99995 .99996 .00937 65.016 94.934)" fill="#00D664"/><ellipse rx="1.294" ry="1.555" transform="matrix(-.01006 .99995 .99996 .00937 64.861 100.459)" fill="#00D664"/><ellipse rx="1.294" ry="1.555" transform="matrix(-.01006 .99995 .99996 .00937 64.704 119.984)" fill="#00D664"/><ellipse rx="1.294" ry="1.555" transform="matrix(-.01006 .99995 .99996 .00937 64.546 138.509)" fill="#00D664"/><ellipse rx="1.294" ry="1.555" transform="matrix(-.01006 .99995 .99996 .00937 64.39 157.034)" fill="#00D664"/><ellipse rx="1.294" ry="1.555" transform="matrix(-.01006 .99995 .99996 .00937 54.338 119.984)" fill="#00D664"/><ellipse rx="1.294" ry="1.555" transform="matrix(-.01006 .99995 .99996 .00937 54.18 138.509)" fill="#00D664"/><ellipse rx="1.294" ry="1.555" transform="matrix(-.01006 .99995 .99996 .00937 54.025 157.034)" fill="#00D664"/><ellipse rx="1.294" ry="1.555" transform="matrix(-.01006 .99995 .99996 .00937 43.972 119.984)" fill="#00D664"/><ellipse rx="1.294" ry="1.555" transform="matrix(-.01006 .99995 .99996 .00937 43.814 138.509)" fill="#00D664"/><ellipse rx="1.294" ry="1.555" transform="matrix(-.01006 .99995 .99996 .00937 43.66 157.034)" fill="#00D664"/><ellipse rx="1.294" ry="1.555" transform="matrix(-.01006 .99995 .99996 .00937 33.606 119.984)" fill="#00D664"/><ellipse rx="1.294" ry="1.555" transform="matrix(-.01006 .99995 .99996 .00937 33.448 138.509)" fill="#00D664"/><ellipse rx="1.294" ry="1.555" transform="matrix(-.01006 .99995 .99996 .00937 33.293 157.034)" fill="#00D664"/><ellipse rx="1.294" ry="1.555" transform="matrix(-.01006 .99995 .99996 .00937 23.24 119.984)" fill="#00D664"/><ellipse rx="1.294" ry="1.555" transform="matrix(-.01006 .99995 .99996 .00937 23.083 138.509)" fill="#00D664"/><ellipse rx="1.294" ry="1.555" transform="matrix(-.01006 .99995 .99996 .00937 22.928 157.034)" fill="#00D664"/><ellipse rx="1.294" ry="1.555" transform="matrix(-.01006 .99995 .99996 .00937 12.876 119.984)" fill="#00D664"/><ellipse rx="1.294" ry="1.555" transform="matrix(-.01006 .99995 .99996 .00937 12.718 138.509)" fill="#00D664"/><ellipse rx="1.294" ry="1.555" transform="matrix(-.01006 .99995 .99996 .00937 12.563 157.034)" fill="#00D664"/><ellipse rx="1.294" ry="1.555" transform="matrix(-.01006 .99995 .99996 .00937 2.51 119.984)" fill="#00D664"/><ellipse rx="1.294" ry="1.555" transform="matrix(-.01006 .99995 .99996 .00937 2.353 138.509)" fill="#00D664"/><ellipse rx="1.294" ry="1.555" transform="matrix(-.01006 .99995 .99996 .00937 2.198 157.034)" fill="#00D664"/><ellipse rx="1.341" ry="1.5" transform="matrix(-1 0 0 1 221.098 156.5)" fill="#00D664"/><ellipse rx="1.341" ry="1.5" transform="matrix(-1 0 0 1 205.006 156.5)" fill="#00D664"/><ellipse rx="1.341" ry="1.5" transform="matrix(-1 0 0 1 188.914 156.5)" fill="#00D664"/><ellipse rx="1.341" ry="1.5" transform="matrix(-1 0 0 1 172.822 156.5)" fill="#00D664"/><ellipse rx="1.341" ry="1.5" transform="matrix(-1 0 0 1 156.73 156.5)" fill="#00D664"/><ellipse rx="1.341" ry="1.5" transform="matrix(-1 0 0 1 140.638 156.5)" fill="#00D664"/><ellipse rx="1.341" ry="1.5" transform="matrix(-1 0 0 1 124.546 156.5)" fill="#00D664"/><ellipse rx="1.341" ry="1.5" transform="matrix(-1 0 0 1 108.455 156.5)" fill="#00D664"/><ellipse rx="1.341" ry="1.5" transform="matrix(-1 0 0 1 92.363 156.5)" fill="#00D664"/><ellipse rx="1.341" ry="1.5" transform="matrix(-1 0 0 1 76.27 156.5)" fill="#00D664"/></svg>