<svg width="17" height="17" fill="none" xmlns="http://www.w3.org/2000/svg"><path d="M5.477 10.99h9.033a.498.498 0 00.479-.361l1.992-6.973a.498.498 0 00-.479-.635H4.329L3.973 1.42a.498.498 0 00-.487-.39H.498a.498.498 0 100 .996h2.589l1.798 8.092a1.495 1.495 0 00.594 2.865h9.03a.498.498 0 100-.996H5.48a.499.499 0 01-.002-.996zm10.365-6.972l-1.708 5.976H5.878L4.55 4.018h11.292z" fill="#fff"/><path d="M4.98 14.477c0 .823.67 1.494 1.495 1.494.823 0 1.494-.67 1.494-1.494s-.67-1.495-1.494-1.495-1.495.67-1.495 1.495zm1.495-.498a.499.499 0 11-.002.997.499.499 0 01.002-.998zm5.545.498c0 .823.67 1.494 1.494 1.494.823 0 1.494-.67 1.494-1.494s-.67-1.495-1.494-1.495-1.495.67-1.495 1.495zm1.494-.498a.499.499 0 11-.002.997.499.499 0 01.002-.998z" fill="#fff"/></svg>