<svg width="71" height="18" fill="none" xmlns="http://www.w3.org/2000/svg"><path d="M2.486 2.326C3.63 1.431 5.206.984 7.216.984c2.01 0 3.564.44 4.664 1.32 1.115.865 1.672 2.127 1.672 3.784h-4.62c0-1.188-.645-1.782-1.936-1.782-.543 0-.968.11-1.276.33a1.03 1.03 0 00-.462.88c0 .425.19.748.572.968.381.205 1.137.44 2.266.704.719.176 1.32.337 1.804.484.484.147.997.36 1.54.638.557.279.99.587 1.298.924.323.323.594.748.814 1.276.22.513.33 1.107.33 1.782 0 1.57-.594 2.809-1.782 3.718-1.188.895-2.816 1.342-4.884 1.342-2.127 0-3.784-.477-4.972-1.43-1.188-.953-1.782-2.288-1.782-4.004h4.752c0 1.335.719 2.002 2.156 2.002.587 0 1.041-.117 1.364-.352.337-.25.506-.58.506-.99 0-.455-.183-.785-.55-.99-.367-.205-1.1-.447-2.2-.726l-1.298-.352c-.308-.103-.697-.235-1.166-.396a8.95 8.95 0 01-1.078-.484 9.964 9.964 0 01-.88-.616 2.915 2.915 0 01-.704-.792 5.23 5.23 0 01-.418-1.034A4.554 4.554 0 01.77 5.89c0-1.496.572-2.684 1.716-3.564zm35.98-.99L35.406 17h-5.94l-1.188-6.314c-.425-2.405-.733-4.378-.924-5.918h-.044c-.205 1.716-.52 3.689-.946 5.918L25.177 17h-5.94L16.18 1.336h4.268l.946 5.588c.337 1.95.645 4.063.924 6.336h.044c.264-2.068.609-4.18 1.034-6.336l1.1-5.588h5.654l1.1 5.588c.41 2.039.763 4.15 1.056 6.336h.044c.25-2.112.55-4.224.902-6.336l.968-5.588h4.246zM51.27 17l-.792-2.816h-5.302L44.384 17h-4.642L45 1.336h5.654L55.912 17H51.27zm-5.126-6.27h3.366l-.308-1.078a105.485 105.485 0 01-1.342-5.28h-.044c-.47 2.01-.924 3.77-1.364 5.28l-.308 1.078zm24.31-9.394l-5.369 9.944V17h-4.4v-5.72l-5.368-9.944h4.84l1.232 2.75a33.545 33.545 0 011.474 3.872h.044a35.946 35.946 0 011.496-3.872l1.232-2.75h4.818z" fill="#fff"/></svg>